<?xml version="1.0" encoding="UTF-8"?>
<svg width="602px" height="65px" viewBox="0 0 602 65" version="1.1" xmlns="http://www.w3.org/2000/svg" xmlns:xlink="http://www.w3.org/1999/xlink">
    <!-- Generator: Sketch 49.3 (51167) - http://www.bohemiancoding.com/sketch -->
    <title>BloombergOpinion-041718</title>
    <desc>Created with Sketch.</desc>
    <defs></defs>
    <g id="BloombergOpinion-041718" stroke="none" stroke-width="1" fill="none" fill-rule="evenodd">
        <path d="M0,52.6659529 L0,1 L25.1491092,1 C29.9070488,1 33.5774593,2.16488223 36.1603408,4.28907923 C39.0830751,6.68736617 40.6463981,10.2505353 40.6463981,14.4989293 C40.6463981,19.4325482 38.6752517,22.51606 34.5970178,24.4346895 L34.5970178,24.640257 C39.8987219,26.4218415 42.9573974,31.2184154 42.9573974,37.0428266 C42.9573974,42.5931478 40.8503098,46.9100642 37.383811,49.5139186 C34.4610767,51.6381156 30.654725,52.6659529 25.6249032,52.6659529 L0,52.6659529 Z M13.8659954,21.3511777 L22.7021689,21.3511777 C25.4209915,21.3511777 27.4601084,19.7751606 27.4601084,16.6916488 C27.4601084,13.6766595 25.3530209,12.1691649 22.6341983,12.1691649 L13.8659954,12.1691649 L13.8659954,21.3511777 Z M13.8659954,41.359743 L23.9936096,41.359743 C27.0522851,41.359743 29.3632843,39.4411135 29.3632843,35.9464668 C29.3632843,32.3147752 26.8483734,30.5331906 23.925639,30.5331906 L13.8659954,30.5331906 L13.8659954,41.359743 Z M46.2879551,52.6659529 L46.2879551,1 L59.4742448,1 L59.4742448,52.6659529 L46.2879551,52.6659529 Z M82.0404725,53.8308351 C70.4854764,53.8308351 63.0087142,46.0192719 63.0087142,34.3019272 C63.0087142,22.6531049 70.4854764,14.7730193 82.0404725,14.7730193 C93.5954686,14.7730193 100.93629,22.6531049 100.93629,34.3019272 C100.93629,46.0192719 93.5954686,53.8308351 82.0404725,53.8308351 Z M81.9045314,44.8543897 C85.8468242,44.8543897 87.8859411,40.8115632 87.8859411,34.3019272 C87.8859411,27.8608137 85.8468242,23.8179872 81.9045314,23.8179872 C77.9622386,23.8179872 76.0590627,27.8608137 76.0590627,34.3019272 C76.0590627,40.8115632 77.9622386,44.8543897 81.9045314,44.8543897 Z M122.075136,53.8308351 C110.520139,53.8308351 103.043377,46.0192719 103.043377,34.3019272 C103.043377,22.6531049 110.520139,14.7730193 122.075136,14.7730193 C133.630132,14.7730193 140.970953,22.6531049 140.970953,34.3019272 C140.970953,46.0192719 133.630132,53.8308351 122.075136,53.8308351 Z M121.939194,44.8543897 C125.881487,44.8543897 127.920604,40.8115632 127.920604,34.3019272 C127.920604,27.8608137 125.881487,23.8179872 121.939194,23.8179872 C117.996902,23.8179872 116.093726,27.8608137 116.093726,34.3019272 C116.093726,40.8115632 117.996902,44.8543897 121.939194,44.8543897 Z M144.505422,52.6659529 L144.505422,15.8008565 L156.740124,15.8008565 L156.740124,21.6252677 L156.944036,21.6252677 C159.390976,17.0342612 162.721534,14.7044968 167.955267,14.7044968 C172.577266,14.7044968 176.043765,17.0342612 177.810999,21.2141328 L178.014911,21.2141328 C181.005616,16.2119914 184.879938,14.7044968 189.365995,14.7044968 C197.862316,14.7044968 201.532727,21.0085653 201.532727,29.5053533 L201.532727,52.6659529 L188.68629,52.6659529 L188.68629,31.8351178 C188.68629,28.0663812 187.53079,25.5995717 184.268203,25.5995717 C181.073586,25.5995717 179.442293,28.614561 179.442293,32.5888651 L179.442293,52.6659529 L166.595856,52.6659529 L166.595856,31.8351178 C166.595856,28.0663812 165.440356,25.5995717 162.177769,25.5995717 C158.983153,25.5995717 157.351859,28.614561 157.351859,32.5888651 L157.351859,52.6659529 L144.505422,52.6659529 Z M228.856894,53.8993576 C224.914601,53.8993576 220.836367,51.9807281 218.593338,47.5952891 L218.457397,47.5952891 L218.457397,52.6659529 L206.222696,52.6659529 L206.222696,1 L219.069132,1 L219.069132,19.6381156 L219.273044,19.6381156 C221.719985,16.4175589 224.982572,14.7044968 229.672541,14.7044968 C238.848567,14.7044968 244.150271,23.0642398 244.150271,34.1648822 C244.150271,46.7044968 238.372773,53.8993576 228.856894,53.8993576 Z M225.050542,43.8265525 C228.992835,43.8265525 231.099923,39.9892934 231.099923,34.0278373 C231.099923,28.0663812 228.924864,24.2291221 225.050542,24.2291221 C221.108249,24.2291221 218.593338,28.0663812 218.593338,34.0278373 C218.593338,39.9207709 221.108249,43.8265525 225.050542,43.8265525 Z M265.221146,53.6937901 C253.870062,53.6937901 246.257359,45.9507495 246.257359,34.1648822 C246.257359,22.6531049 253.802091,14.6359743 264.745352,14.6359743 C270.182998,14.6359743 274.397173,16.3490364 277.591789,19.4325482 C281.805964,23.5438972 283.70914,29.9164882 283.573199,37.4539615 L259.035825,37.4539615 C259.511619,42.1820128 261.754648,44.5117773 265.62897,44.5117773 C267.871998,44.5117773 269.843145,43.620985 270.658792,41.2912206 L283.029435,41.2912206 C280.854376,49.5824411 274.397173,53.6937901 265.221146,53.6937901 Z M265.017235,23.4068522 C261.482765,23.4068522 259.443648,25.9421842 258.967854,30.2591006 L270.862703,30.2591006 C270.658792,25.7366167 268.143881,23.4068522 265.017235,23.4068522 Z M299.34237,15.8008565 L299.34237,22.379015 L299.546282,22.379015 C302.197134,16.9657388 305.663633,15.0471092 310.285631,15.0471092 C311.37316,15.0471092 312.120837,15.1841542 312.460689,15.3897216 L312.460689,26.6959315 L312.188807,26.6959315 C304.372192,25.3254818 299.954105,28.9571734 299.954105,37.248394 L299.954105,52.6659529 L287.107668,52.6659529 L287.107668,15.8008565 L299.34237,15.8008565 Z M332.9878,41.359743 C336.726181,41.359743 338.901239,37.7280514 338.901239,32.862955 C338.901239,28.2719486 336.726181,24.5717345 332.9878,24.5717345 C329.38536,24.5717345 327.074361,27.8608137 327.074361,32.862955 C327.074361,37.7965739 329.38536,41.359743 332.9878,41.359743 Z M332.9878,65 C323.268009,65 316.470953,61.0942184 315.247483,53.0085653 L327.618125,53.0085653 C328.093919,54.51606 329.725213,55.8865096 332.783888,55.8865096 C336.930093,55.8865096 338.357475,53.2826552 338.357475,49.4453961 L338.357475,46.3618844 L338.085593,46.3618844 C336.046476,49.0342612 333.327653,50.7473233 329.31739,50.7473233 C321.432804,50.7473233 314.567777,44.9914347 314.567777,33.4796574 C314.567777,22.9271949 320.209334,14.7044968 328.705655,14.7044968 C333.599535,14.7044968 336.59024,16.6916488 338.561387,20.117773 L338.765298,20.117773 L338.765298,15.8008565 L351,15.8008565 L351,47.732334 C351,53.6252677 348.960883,58.2162741 345.902208,60.9571734 C342.707591,63.8351178 338.153563,65 332.9878,65 Z" id="Bloomberg" fill="#000000"></path>
        <path d="M379.572848,53.1640212 C364.503311,53.1640212 355,41.8539683 355,26.615873 C355,11.3100529 364.503311,0 379.572848,0 C394.642384,0 404.281457,11.3100529 404.281457,26.615873 C404.281457,41.8539683 394.642384,53.1640212 379.572848,53.1640212 Z M379.640728,41.447619 C386.428808,41.447619 389.890728,35.352381 389.890728,26.615873 C389.890728,17.8793651 386.428808,11.7164021 379.640728,11.7164021 C372.852649,11.7164021 369.390728,17.8793651 369.390728,26.615873 C369.390728,35.352381 372.852649,41.447619 379.640728,41.447619 Z M426.817881,43.5470899 C430.619205,43.5470899 432.791391,39.8899471 432.791391,34.1333333 C432.791391,27.8349206 430.619205,24.584127 426.817881,24.584127 C422.880795,24.584127 420.301325,28.2412698 420.301325,34.1333333 C420.301325,39.6190476 422.880795,43.5470899 426.817881,43.5470899 Z M407.94702,64 L407.94702,15.5089947 L420.165563,15.5089947 L420.165563,20.1820106 L420.369205,20.1820106 C422.880795,16.4571429 426.410596,14.4253968 431.162252,14.4253968 C440.461921,14.4253968 445.824503,23.0941799 445.824503,33.6592593 C445.824503,45.578836 439.850993,53.1640212 430.619205,53.1640212 C426.478477,53.1640212 423.288079,51.5386243 420.980132,48.152381 L420.77649,48.152381 L420.77649,64 L407.94702,64 Z M449.354305,12.0550265 L449.354305,1.76084656 L462.183775,1.76084656 L462.183775,12.0550265 L449.354305,12.0550265 Z M449.354305,51.9449735 L449.354305,15.5089947 L462.183775,15.5089947 L462.183775,51.9449735 L449.354305,51.9449735 Z M479.357616,15.5089947 L479.357616,20.7915344 L479.561258,20.7915344 C482.344371,16.5248677 485.874172,14.4253968 490.693709,14.4253968 C498.703642,14.4253968 502.844371,20.0465608 502.844371,28.3767196 L502.844371,51.9449735 L490.014901,51.9449735 L490.014901,31.3566138 C490.014901,27.2931217 488.521523,25.0582011 485.195364,25.0582011 C481.937086,25.0582011 479.968543,27.7671958 479.968543,31.9661376 L479.968543,51.9449735 L467.139073,51.9449735 L467.139073,15.5089947 L479.357616,15.5089947 Z M507.528146,12.0550265 L507.528146,1.76084656 L520.357616,1.76084656 L520.357616,12.0550265 L507.528146,12.0550265 Z M507.528146,51.9449735 L507.528146,15.5089947 L520.357616,15.5089947 L520.357616,51.9449735 L507.528146,51.9449735 Z M542.89404,53.0962963 C531.354305,53.0962963 523.887417,45.3756614 523.887417,33.794709 C523.887417,22.2814815 531.354305,14.4931217 542.89404,14.4931217 C554.433775,14.4931217 561.764901,22.2814815 561.764901,33.794709 C561.764901,45.3756614 554.433775,53.0962963 542.89404,53.0962963 Z M542.758278,44.2243386 C546.695364,44.2243386 548.731788,40.2285714 548.731788,33.794709 C548.731788,27.4285714 546.695364,23.4328042 542.758278,23.4328042 C538.821192,23.4328042 536.92053,27.4285714 536.92053,33.794709 C536.92053,40.2285714 538.821192,44.2243386 542.758278,44.2243386 Z M577.513245,15.5089947 L577.513245,20.7915344 L577.716887,20.7915344 C580.5,16.5248677 584.029801,14.4253968 588.849338,14.4253968 C596.859272,14.4253968 601,20.0465608 601,28.3767196 L601,51.9449735 L588.17053,51.9449735 L588.17053,31.3566138 C588.17053,27.2931217 586.677152,25.0582011 583.350993,25.0582011 C580.092715,25.0582011 578.124172,27.7671958 578.124172,31.9661376 L578.124172,51.9449735 L565.294702,51.9449735 L565.294702,15.5089947 L577.513245,15.5089947 Z" id="Opinion" fill="#0069E7"></path>
    </g>
</svg>