<svg width="800" height="160" viewBox="0 0 800 160" fill="none" xmlns="http://www.w3.org/2000/svg">
<path d="M125.013 20C152.295 21.9594 167.69 39.8744 170.059 61.859H141.486C140.945 57.5461 139.065 53.5117 136.11 50.3245C133.154 47.1373 129.273 44.9583 125.013 44.0947V20ZM125.013 116.25C129.571 115.514 133.748 113.266 136.872 109.868C139.997 106.47 141.887 102.119 142.239 97.5166H170.877C169.262 119.652 152.639 138.428 125.013 140V116.25ZM63.1507 74.2616C65.4332 44.1163 85.7597 22.1102 114.678 20V43.9009C100.789 46.1618 93.6621 58.1123 92.3917 74.2616H63.1507ZM114.678 140C84.5324 137.416 64.5719 114.355 63 83.4775H92.3271C92.9516 100.983 101.5 113.623 114.785 116.25L114.678 140Z" fill="white"/>
<path d="M209.786 74.2608V22.1094H181.213V74.2608H209.786ZM181.213 137.566H209.786V83.3905H181.213V137.566Z" fill="white"/>
<path d="M254.038 55.5276V137.566H282.633V55.5276H254.038ZM316.482 46.3333V22.1094H220.447V46.3333H316.482Z" fill="white"/>
<path d="M378.064 57.5517L395.936 22.1094H426.082L392.017 85.4146L378.064 57.5517ZM358.513 95.018L319.453 22.1094H350.718L387.323 95.1042V137.566H358.513V95.018Z" fill="white"/>
<path d="M473.02 113.342H514.685V137.566H473.02V113.342ZM462.857 83.3905V137.566H434.262V83.3905H462.857ZM434.262 22.1094H462.857V74.2608H434.262V22.1094Z" fill="white"/>
<path d="M601.569 137.566H631.606L612.227 83.4767H582.512L601.569 137.566ZM608.847 74.2608L589.941 22.1094H561.045L579.283 74.2608H608.847ZM551.183 119.156H585.419L577.345 96.31H557.815L551.183 119.156ZM568.409 70.385L555.274 33.0909L519.1 137.566H547.845L568.409 70.385Z" fill="white"/>
<path d="M678.438 114.634H693.511C703.028 114.634 708.691 110.112 708.691 101.887C708.691 92.5203 702.059 88.7952 693.188 88.7952H678.438V66.1646H691.185C699.432 66.1646 705.095 62.9348 705.095 55.3984C705.095 47.8621 699.755 44.6323 691.357 44.6323H678.438V22.1094H695.406C707.507 22.1094 716.077 25.0162 722.364 30.0118C725.662 32.6489 728.289 36.0295 730.029 39.8768C731.769 43.7242 732.574 47.929 732.377 52.1471C732.377 63.7745 726.563 70.8802 716.227 74.7561V75.2298C722.351 76.9304 727.722 80.646 731.473 85.7761C735.224 90.9062 737.135 97.1511 736.899 103.502C736.899 115.129 732.592 123.527 725.12 129.341C718.015 134.831 708.648 137.566 696.697 137.566H678.438V114.634ZM668.275 137.566H639.68V83.3905H668.275V137.566ZM639.68 74.2608V22.1094H668.275V74.2608H639.68Z" fill="white"/>
</svg>
